<svg xmlns="http://www.w3.org/2000/svg" width="40.872" height="50.785" viewBox="0 0 40.872 50.785">
  <g id="ic_property_detail_map_pin" transform="translate(-439.973 -2317.49)">
    <g id="Layer_1-2" transform="translate(442.999 2361.858)" opacity="0.14">
      <path id="Path_30556" data-name="Path 30556" d="M18.933,0h3.021c.169,0,.337.011.508.013Q26.473.059,30.019.3c10.023.68,13.78,2.268,8.4,3.551-1.276.3-2.609.605-3.916.908Q29.117,6,23.737,7.25a12.809,12.809,0,0,1-2.412.255c-.112,0-.2.019-.3.028H19.864c-.1-.01-.188-.024-.3-.028a12.856,12.856,0,0,1-2.412-.256Q9.9,5.569,2.637,3.89C.392,3.371-.423,2.82.207,2.233,1.294,1.22,7.317.349,15.122.09,16.368.048,17.661.029,18.933,0Zm1.52,1.292c-4.6,0-8.362.472-8.375,1.052s3.74,1.062,8.356,1.062c4.6,0,8.361-.473,8.375-1.053s-3.738-1.062-8.356-1.062Z" transform="translate(-3.026 -1.115)" fill="#232837"/>
    </g>
    <g id="Layer_1-2-2" data-name="Layer_1-2" transform="translate(442.999 2317.49)">
      <path id="Path_30556-2" data-name="Path 30556" d="M16.13,0H18.7a4.1,4.1,0,0,0,.432.087,16.666,16.666,0,0,1,6.439,1.936A17.723,17.723,0,0,1,32.73,25.965c-1.087,2.053-2.223,4.08-3.337,6.119q-4.586,8.393-9.17,16.788a3.243,3.243,0,0,1-2.055,1.722c-.1.025-.171.126-.254.19h-.991c-.085-.065-.16-.164-.255-.19a3.257,3.257,0,0,1-2.055-1.723Q8.438,37.544,2.247,26.226A17.737,17.737,0,0,1,.177,15.052,17.561,17.561,0,0,1,12.883.6C13.945.325,15.047.2,16.13,0Zm1.295,9.788a7.128,7.128,0,1,0,7.119,7.16,7.139,7.139,0,0,0-7.119-7.16Z" transform="translate(-0.001)" fill="#ed1c24"/>
    </g>
  </g>
</svg>
